<svg width="100" height="100" viewBox="0 0 100 100" xmlns="http://www.w3.org/2000/svg">
    <g fill="none" fill-rule="evenodd">
        <path d="M98.912 49.456c0 27.313-22.142 49.456-49.457 49.456C22.142 98.912 0 76.77 0 49.456 0 22.143 22.142 0 49.455 0 76.77 0 98.912 22.142 98.912 49.455" fill="#FFF"/>
        <path d="M38.66 38.535c2.543-1.816 4.49-3.806 5.848-5.97 1.353-2.165 2.032-4.156 2.032-5.972 0-1.593-.46-2.913-1.384-3.96-.92-1.048-1.97-1.572-3.142-1.572-1.034 0-1.984.246-2.85.735-.866.488-1.53 1.27-1.99 2.346-.462 1.077-.692 2.495-.692 4.255 0 2.57.726 5.95 2.18 10.14zm13.285 29.753c-3.744-4.022-6.286-6.845-7.626-8.464-1.845-2.207-3.53-4.415-5.05-6.623-1.524-2.204-3.166-4.86-4.925-7.96-2.542 1.843-4.373 3.71-5.49 5.595-1.117 1.885-1.676 4.073-1.676 6.558 0 2.458.655 4.89 1.97 7.292 1.31 2.402 3.08 4.253 5.3 5.552 2.22 1.298 4.56 1.948 7.02 1.948 3.547 0 7.04-1.298 10.475-3.897zm28.495 2.85c-2.04 1.452-3.255 2.332-3.645 2.64-.586.447-1.802 1.425-3.645 2.933-1.01.196-2.002.294-2.98.294-2.52 0-4.633-.363-6.34-1.088-2.997-1.118-6.048-2.95-9.155-5.49-3.57 2.625-6.585 4.386-9.042 5.278-2.456.896-5.22 1.342-8.288 1.342-3.797 0-7-.776-9.608-2.326-2.61-1.55-4.578-3.672-5.902-6.37-1.326-2.696-1.99-5.384-1.99-8.067 0-3.91 1.1-7.338 3.3-10.287 2.2-2.946 5.472-5.622 9.817-8.024-1.675-4.024-2.514-7.724-2.514-11.106 0-1.647.335-3.254 1.006-4.818.446-1.118.83-1.865 1.152-2.242.32-.377 1.78-1.684 4.38-3.918 1.564-1.314 2.793-2.18 3.686-2.598 1.174-.56 2.473-.84 3.897-.84 2.402 0 4.28.7 5.636 2.096 1.355 1.4 2.032 3.34 2.032 5.826 0 2.626-.956 5.39-2.87 8.297-1.914 2.904-5.022 5.81-9.323 8.715 1.958 3.824 4.624 7.837 7.998 12.037 3.373 4.202 6.5 7.46 9.384 9.778 2.855-3.21 4.282-6.6 4.282-10.173 0-2.092-.31-3.726-.927-4.897-.393-.726-.982-1.172-1.767-1.34-.507-.14-2.737-.236-6.694-.292l-.377-.545 2.73-3.98c1.847.25 4.142.377 6.884.377 1.76 0 5.2-.1 10.322-.296 1.426-.054 3.958-.082 7.595-.082-.476 2.068-.797 4.023-.963 5.866-3.856-.642-7.866-.922-12.027-.838.335 1.285.5 2.5.5 3.646 0 2.542-.55 4.965-1.655 7.27-1.107 2.306-2.89 4.73-5.352 7.27 5.087 3.662 10.105 5.49 15.052 5.49.755 0 1.405-.09 1.95-.272.545-.182 1.516-.663 2.914-1.445l.544 2.178z" fill="#1FA07C"/>
    </g>
</svg>
