<?xml version="1.0" encoding="utf-8"?>
<!-- Generator: Adobe Illustrator 19.2.0, SVG Export Plug-In . SVG Version: 6.00 Build 0)  -->
<svg version="1.1" id="Layer_1" xmlns="http://www.w3.org/2000/svg" xmlns:xlink="http://www.w3.org/1999/xlink" x="0px" y="0px"
	 viewBox="0 0 18 18" style="enable-background:new 0 0 18 18;" xml:space="preserve">
<title>Group</title>
<desc>Created with Sketch.</desc>
<g id="All">
	<g id="lock">
		<g id="Group">
			<path id="Fill-1" fill="#FFF" d="M9,5.2c-0.9,0-1.6,0.7-1.6,1.6v1.1h3.2V6.8C10.6,5.9,9.9,5.2,9,5.2"/>
			<path id="Fill-3" fill="#FFF" d="M12.9,13.7H5.1V7.9h1V6.8c0-1.6,1.3-2.9,2.9-2.9s2.9,1.3,2.9,2.9v1.1h1V13.7z M9,0C4,0,0,4,0,9s4,9,9,9
				s9-4,9-9S14,0,9,0L9,0z"/>
		</g>
	</g>
</g>
</svg>
