<?xml version="1.0" encoding="UTF-8" standalone="no"?>
<svg width="471px" height="103px" viewBox="0 0 471 103" version="1.1" xmlns="http://www.w3.org/2000/svg" xmlns:xlink="http://www.w3.org/1999/xlink">
    <!-- Generator: Sketch 3.7.1 (28215) - http://www.bohemiancoding.com/sketch -->
    <title>world-pulse</title>
    <desc>Created with Sketch.</desc>
    <defs></defs>
    <g id="Page-1" stroke="none" stroke-width="1" fill="none" fill-rule="evenodd">
        <g id="world-pulse" fill="#71060B">
            <g id="logo-white-solid" transform="translate(9.170754, 20.433149)">
                <path d="M146.1737,29.4374575 C153.435648,28.5735657 158.22362,22.581173 158.22362,15.3923587 C158.22362,10.5918168 155.826206,5.87012225 151.634731,3.40300254 C147.639802,1.1358578 142.838118,1.06958038 138.384961,1.06958038 L126.416174,1.06958038 L126.416174,51.2781518 L132.672533,51.2781518 L132.672533,30.0408106 L139.64766,30.0408106 L154.429809,51.2792945 L162.030001,51.2792945 L146.1737,29.4374575 L146.1737,29.4374575 Z M139.051163,24.8483178 L132.673676,24.8483178 L132.673676,6.65859497 L138.719776,6.65859497 C144.913287,6.65859497 152.368353,7.79102462 152.368353,15.6540402 C152.368353,23.6496107 145.434364,24.8483178 139.051163,24.8483178 L139.051163,24.8483178 Z" id="Shape"></path>
                <polygon id="Shape" points="63.2686507 1.0707231 49.2166956 37.0319353 35.0253294 7.10542736e-14 20.8488185 37.0319353 6.78886437 1.0707231 0 1.0707231 20.8488185 53.2813296 35.0253294 16.4516547 49.2166956 53.2813296 70.0586578 1.0707231"></polygon>
                <path d="M94.741282,7.10542736e-14 C80.3556544,7.10542736e-14 68.4348611,11.7882385 68.4348611,26.1761515 C68.4348611,41.097712 80.2162433,52.3557312 94.741282,52.3557312 C109.26175,52.3557312 121.047703,41.097712 121.047703,26.1761515 C121.047703,11.7882385 109.122339,7.10542736e-14 94.741282,7.10542736e-14 L94.741282,7.10542736e-14 Z M94.741282,46.4970361 C83.8866409,46.4970361 74.6992197,37.6272894 74.6992197,26.1761515 C74.6992197,15.1169646 82.9530435,5.86897953 94.741282,5.86897953 C106.52952,5.86897953 114.795914,15.1181073 114.795914,26.1761515 C114.795914,37.6272894 105.598208,46.4970361 94.741282,46.4970361 L94.741282,46.4970361 Z" id="Shape"></path>
                <path d="M335.468859,30.710441 C335.468859,38.9014156 333.00631,46.4970361 323.350376,46.4970361 C313.683015,46.4970361 311.225037,38.9025583 311.225037,30.710441 L311.225037,1.0707231 L304.960678,1.0707231 L304.960678,32.8404601 C304.960678,43.8985042 311.829533,52.3557312 323.351519,52.3557312 C334.864363,52.3557312 341.71722,43.899647 341.71722,32.8404601 L341.71722,1.0707231 L335.470002,1.0707231 L335.470002,30.710441 L335.468859,30.710441 Z" id="Shape"></path>
                <path d="M399.637968,21.5824409 L396.040704,20.1757599 C392.916524,18.9850518 389.047294,16.917882 389.047294,12.9926591 C389.047294,8.5920672 393.446743,5.87012225 397.433673,5.87012225 C401.229769,5.87012225 403.630611,7.46763654 405.496664,10.5918168 L410.494895,7.59676323 C407.756952,2.73108666 403.167812,0.00114271408 397.575369,0.00114271408 C389.980892,0.00114271408 382.779508,4.86339114 382.779508,12.9926591 C382.779508,19.9814985 387.979999,23.2530889 393.709568,25.7167805 L397.168563,27.1874535 C401.492593,28.9746583 405.82348,31.3103659 405.82348,36.7039764 C405.82348,41.965032 401.964534,46.4981788 396.566353,46.4981788 C391.170457,46.4981788 386.76758,42.4918232 386.84757,36.9679433 L380.522647,38.2957771 C381.585371,46.3621958 387.918293,52.3568739 396.039562,52.3568739 C405.031579,52.3568739 412.08441,45.8239775 412.08441,36.7039764 C412.08441,28.3061706 406.752506,24.3786623 399.637968,21.5824409 L399.637968,21.5824409 Z" id="Shape"></path>
                <path d="M212.345987,1.0707231 L201.957574,1.0707231 L201.957574,51.2792945 L212.141442,51.2792945 C228.002313,51.2792945 240.517318,43.0231853 240.517318,25.9167554 C240.517318,9.1931348 227.732632,1.0707231 212.345987,1.0707231 L212.345987,1.0707231 Z M210.415943,45.5657241 L208.215076,45.5657241 L208.215076,6.80371966 L210.415943,6.80371966 C223.1972,6.80371966 234.25753,11.5231288 234.25753,26.1772942 C234.25753,40.7606114 223.1972,45.5657241 210.415943,45.5657241 L210.415943,45.5657241 Z" id="Shape"></path>
                <polygon id="Shape" points="444.920299 6.80371966 444.920299 1.0707231 417.945391 1.0707231 417.945391 51.2792945 444.920299 51.2792945 444.920299 45.5657241 424.200608 45.5657241 424.200608 26.5806723 444.32266 26.5806723 444.32266 20.8522466 424.200608 20.8522466 424.200608 6.80371966"></polygon>
                <path d="M272.073367,1.0707231 L261.695238,1.0707231 L261.596964,40.1869689 L261.596964,72.4057925 L268.008733,72.4057925 L268.008733,51.2792945 L271.87682,51.2792945 C287.72855,51.2792945 300.253839,43.0231853 300.253839,25.9167554 C300.253839,9.1931348 287.466869,1.0707231 272.073367,1.0707231 L272.073367,1.0707231 Z M270.147894,45.5657241 L268.008733,45.5657241 L268.008733,40.1869689 L267.948169,40.1869689 L267.948169,6.80371966 L270.147894,6.80371966 C282.932579,6.80371966 293.990623,11.5231288 293.990623,26.1772942 C293.990623,40.7606114 282.932579,45.5657241 270.147894,45.5657241 L270.147894,45.5657241 Z" id="Shape"></path>
                <polygon id="Shape" points="355.392079 1.0707231 349.133434 1.0707231 349.133434 51.2792945 379.392503 51.2792945 379.392503 45.5657241 355.392079 45.5657241"></polygon>
                <polygon id="Shape" points="174.060495 0.965593401 167.798422 0.965593401 167.798422 51.1730221 198.056348 51.1730221 198.056348 45.4617371 174.060495 45.4617371"></polygon>
            </g>
        </g>
    </g>
</svg>