<svg width="471" height="103" viewBox="0 0 471 103" xmlns="http://www.w3.org/2000/svg">
    <g fill="#71060B" fill-rule="evenodd">
        <path d="M155.344 49.87c7.262-.863 12.05-6.856 12.05-14.044 0-4.8-2.397-9.523-6.59-11.99-3.993-2.267-8.795-2.333-13.248-2.333h-11.97V71.71h6.257V50.475h6.975L163.6 71.712h7.6l-15.856-21.84zm-7.122-4.59h-6.378V27.093h6.047c6.194 0 13.65 1.132 13.65 8.995 0 7.996-6.935 9.194-13.318 9.194zM72.44 21.504l-14.053 35.96-14.19-37.03-14.177 37.03-14.06-35.96H9.17l20.85 52.21 14.176-36.83 14.19 36.83 20.843-52.21M103.912 20.433c-14.386 0-26.306 11.788-26.306 26.176 0 14.92 11.78 26.18 26.306 26.18 14.52 0 26.306-11.26 26.306-26.18 0-14.39-11.925-26.177-26.306-26.177zm0 46.497c-10.855 0-20.042-8.87-20.042-20.32 0-11.06 8.254-20.308 20.042-20.308 11.788 0 20.055 9.25 20.055 20.307 0 11.45-9.198 20.32-20.055 20.32zM344.64 51.144c0 8.19-2.463 15.786-12.12 15.786-9.666 0-12.124-7.594-12.124-15.786v-29.64h-6.265v31.77c0 11.058 6.87 19.515 18.392 19.515 11.513 0 18.366-8.457 18.366-19.516v-31.77h-6.247v29.64zM408.81 42.016l-3.6-1.407c-3.123-1.192-6.992-3.26-6.992-7.184 0-4.4 4.4-7.123 8.386-7.123 3.797 0 6.197 1.598 8.063 4.722l5-2.995c-2.74-4.866-7.328-7.596-12.92-7.596-7.595 0-14.797 4.863-14.797 12.992 0 6.99 5.2 10.26 10.93 12.724l3.46 1.47c4.323 1.788 8.654 4.124 8.654 9.517 0 5.26-3.86 9.794-9.257 9.794-5.396 0-9.8-4.005-9.72-9.53l-6.324 1.33c1.063 8.065 7.396 14.06 15.517 14.06 8.992 0 16.045-6.533 16.045-15.653 0-8.398-5.332-12.325-12.446-15.12zM221.517 21.504h-10.39v50.208h10.185c15.86 0 28.376-8.256 28.376-25.362 0-16.724-12.785-24.846-28.17-24.846zM219.587 66h-2.2V27.236h2.2c12.78 0 23.84 4.72 23.84 19.373 0 14.584-11.06 19.39-23.84 19.39zM454.09 27.237v-5.733h-26.974v50.208h26.975V66h-20.72V47.013h20.123v-5.73H433.37V27.238M281.244 21.504h-10.378l-.098 39.116v32.22h6.41V71.71h3.87c15.85 0 28.377-8.256 28.377-25.362 0-16.724-12.787-24.846-28.18-24.846zM279.32 66h-2.14v-5.38h-.06V27.237h2.2c12.783 0 23.84 4.72 23.84 19.373 0 14.584-11.057 19.39-23.84 19.39zM364.563 21.504h-6.26v50.208h30.26V66h-24M183.23 21.4h-6.26v50.206h30.257v-5.71H183.23"/>
    </g>
</svg>
